<?xml version="1.0" encoding="utf-8"?>
<!-- Generator: Adobe Illustrator 26.5.0, SVG Export Plug-In . SVG Version: 6.00 Build 0)  -->
<svg version="1.1" xmlns="http://www.w3.org/2000/svg" xmlns:xlink="http://www.w3.org/1999/xlink" x="0px" y="0px"
	 viewBox="0 0 500 500" style="enable-background:new 0 0 500 500;" xml:space="preserve">
<style type="text/css">
	.st0{fill:none;}
	.st1{fill:#D8D0BB;}
	.st2{fill:#F9F8F7;}
	.st3{fill:url(#SVGID_1_);}
	.st4{display:none;}
	.st5{display:inline;}
	.st6{fill:#845E40;}
	.st7{fill:#E9E5D9;}
	.st8{font-family:'BebasNeue';}
	.st9{font-size:32.985px;}
	.st10{enable-background:new    ;}
	.st11{fill:#F4875D;}
	.st12{fill:#B54F28;}
	.st13{fill:#F16935;}
	.st14{fill:#D8CDA7;}
	.st15{fill:#A29A7D;}
	.st16{fill:#E0D7B9;}
	.st17{fill:#634730;}
	.st18{fill:#9D7E66;}
	.st19{fill:#F2B361;}
	.st20{fill:#F5C281;}
	.st21{fill:#B58649;}
	.st22{fill:#69A6A5;}
	.st23{fill:#87B8B7;}
	.st24{fill:#4F7D7C;}
	.st25{font-family:'CooperHewitt-Medium';}
	.st26{font-size:4.7693px;}
	.st27{font-family:'CooperHewitt-Semibold';}
	.st28{font-size:5.721px;}
	.st29{font-size:5.3468px;}
</style>
<pattern  x="-670" y="-150" width="55.89" height="55.89" patternUnits="userSpaceOnUse" id="Unnamed_Pattern_7" viewBox="0 -55.89 55.89 55.89" style="overflow:visible;">
	<g>
		<rect x="0" y="-55.89" class="st0" width="55.89" height="55.89"/>
		<g>
			<g>
				<rect x="2.91" y="-55.89" class="st1" width="0.96" height="0.5"/>
				<path class="st1" d="M3.87-9.82H2.91v1.04h0.96V-9.82z M3.87-19.14H2.91v1.04h0.96V-19.14z M3.87-28.46H2.91v1.04h0.96V-28.46z
					 M3.87-37.78H2.91v1.04h0.96V-37.78z M3.87-47.11H2.91v1.04h0.96V-47.11z"/>
				<rect x="2.91" y="-0.5" class="st1" width="0.96" height="0.5"/>
			</g>
			<g>
				<rect x="9.85" y="-55.89" class="st1" width="0.96" height="0.5"/>
				<path class="st1" d="M10.81-9.82H9.85v1.04h0.96V-9.82z M10.81-19.14H9.85v1.04h0.96V-19.14z M10.81-28.46H9.85v1.04h0.96
					V-28.46z M10.81-37.78H9.85v1.04h0.96V-37.78z M10.81-47.11H9.85v1.04h0.96V-47.11z"/>
				<rect x="9.85" y="-0.5" class="st1" width="0.96" height="0.5"/>
			</g>
			<g>
				<rect x="16.79" y="-55.89" class="st1" width="0.96" height="0.5"/>
				<path class="st1" d="M17.75-9.82h-0.96v1.04h0.96V-9.82z M17.75-19.14h-0.96v1.04h0.96V-19.14z M17.75-28.46h-0.96v1.04h0.96
					V-28.46z M17.75-37.78h-0.96v1.04h0.96V-37.78z M17.75-47.11h-0.96v1.04h0.96V-47.11z"/>
				<rect x="16.79" y="-0.5" class="st1" width="0.96" height="0.5"/>
			</g>
			<g>
				<rect x="23.73" y="-55.89" class="st1" width="0.96" height="0.5"/>
				<path class="st1" d="M24.69-9.82h-0.96v1.04h0.96V-9.82z M24.69-19.14h-0.96v1.04h0.96V-19.14z M24.69-28.46h-0.96v1.04h0.96
					V-28.46z M24.69-37.78h-0.96v1.04h0.96V-37.78z M24.69-47.11h-0.96v1.04h0.96V-47.11z"/>
				<rect x="23.73" y="-0.5" class="st1" width="0.96" height="0.5"/>
			</g>
			<g>
				<rect x="30.67" y="-55.89" class="st1" width="0.96" height="0.5"/>
				<path class="st1" d="M31.63-9.82h-0.96v1.04h0.96V-9.82z M31.63-19.14h-0.96v1.04h0.96V-19.14z M31.63-28.46h-0.96v1.04h0.96
					V-28.46z M31.63-37.78h-0.96v1.04h0.96V-37.78z M31.63-47.11h-0.96v1.04h0.96V-47.11z"/>
				<rect x="30.67" y="-0.5" class="st1" width="0.96" height="0.5"/>
			</g>
			<g>
				<rect x="37.61" y="-55.89" class="st1" width="0.96" height="0.5"/>
				<path class="st1" d="M38.57-9.82h-0.96v1.04h0.96V-9.82z M38.57-19.14h-0.96v1.04h0.96V-19.14z M38.57-28.46h-0.96v1.04h0.96
					V-28.46z M38.57-37.78h-0.96v1.04h0.96V-37.78z M38.57-47.11h-0.96v1.04h0.96V-47.11z"/>
				<rect x="37.61" y="-0.5" class="st1" width="0.96" height="0.5"/>
			</g>
			<g>
				<rect x="44.55" y="-55.89" class="st1" width="0.96" height="0.5"/>
				<path class="st1" d="M45.51-9.82h-0.96v1.04h0.96V-9.82z M45.51-19.14h-0.96v1.04h0.96V-19.14z M45.51-28.46h-0.96v1.04h0.96
					V-28.46z M45.51-37.78h-0.96v1.04h0.96V-37.78z M45.51-47.11h-0.96v1.04h0.96V-47.11z"/>
				<rect x="44.55" y="-0.5" class="st1" width="0.96" height="0.5"/>
			</g>
			<g>
				<rect x="51.49" y="-55.89" class="st1" width="0.96" height="0.5"/>
				<path class="st1" d="M52.45-9.82h-0.96v1.04h0.96V-9.82z M52.45-19.14h-0.96v1.04h0.96V-19.14z M52.45-28.46h-0.96v1.04h0.96
					V-28.46z M52.45-37.78h-0.96v1.04h0.96V-37.78z M52.45-47.11h-0.96v1.04h0.96V-47.11z"/>
				<rect x="51.49" y="-0.5" class="st1" width="0.96" height="0.5"/>
			</g>
		</g>
	</g>
</pattern>
<g id="BACKGROUND">
	<rect id="XMLID_2_" class="st2" width="500" height="500"/>
	<pattern  id="SVGID_1_" xlink:href="#Unnamed_Pattern_7" patternTransform="matrix(0.6408 0 0 0.6408 -2386.0811 -2566.6565)">
	</pattern>
	<rect class="st3" width="500" height="500"/>
</g>
<g id="Designed_By_Freepik" class="st4">
	<g id="Freepik_Sign_1_" class="st5">
		<g id="XMLID_43_">
			<path id="XMLID_68_" class="st6" d="M180.31,473.04v-0.16c-0.22,0.25-0.43,0.45-0.64,0.61c-0.21,0.16-0.44,0.28-0.69,0.36
				c-0.25,0.08-0.52,0.12-0.81,0.12c-0.39,0-0.75-0.08-1.08-0.25c-0.33-0.16-0.62-0.4-0.86-0.7c-0.24-0.3-0.42-0.66-0.55-1.07
				c-0.12-0.41-0.19-0.86-0.19-1.34c0-1.01,0.25-1.8,0.74-2.37c0.49-0.57,1.15-0.85,1.95-0.85c0.47,0,0.86,0.08,1.18,0.24
				c0.32,0.16,0.63,0.41,0.94,0.74v-2.39c0-0.33,0.07-0.58,0.2-0.75c0.13-0.17,0.32-0.26,0.57-0.26c0.25,0,0.43,0.08,0.57,0.23
				c0.13,0.16,0.2,0.39,0.2,0.69v7.15c0,0.31-0.07,0.54-0.21,0.69c-0.14,0.15-0.33,0.23-0.55,0.23c-0.22,0-0.4-0.08-0.55-0.24
				C180.38,473.56,180.31,473.33,180.31,473.04z M177.12,470.66c0,0.44,0.07,0.81,0.2,1.12c0.14,0.31,0.32,0.54,0.56,0.7
				c0.24,0.16,0.5,0.24,0.78,0.24c0.29,0,0.54-0.07,0.78-0.22c0.24-0.15,0.42-0.38,0.56-0.68c0.14-0.31,0.21-0.69,0.21-1.15
				c0-0.43-0.07-0.8-0.21-1.11c-0.14-0.31-0.33-0.55-0.57-0.71c-0.24-0.16-0.5-0.25-0.79-0.25c-0.3,0-0.56,0.08-0.8,0.25
				c-0.23,0.17-0.41,0.41-0.54,0.72C177.18,469.87,177.12,470.24,177.12,470.66z"/>
			<path id="XMLID_65_" class="st6" d="M187.45,471.07h-3.17c0,0.37,0.08,0.69,0.22,0.97c0.14,0.28,0.34,0.49,0.58,0.63
				c0.24,0.14,0.5,0.21,0.79,0.21c0.19,0,0.37-0.02,0.53-0.07c0.16-0.05,0.32-0.12,0.47-0.21c0.15-0.1,0.29-0.2,0.42-0.31
				c0.13-0.11,0.29-0.26,0.49-0.45c0.08-0.07,0.2-0.11,0.36-0.11c0.17,0,0.3,0.05,0.4,0.14c0.1,0.09,0.15,0.22,0.15,0.39
				c0,0.15-0.06,0.32-0.17,0.51c-0.12,0.2-0.29,0.38-0.52,0.56c-0.23,0.18-0.52,0.33-0.87,0.45c-0.35,0.12-0.75,0.18-1.21,0.18
				c-1.04,0-1.85-0.3-2.43-0.89c-0.58-0.59-0.87-1.4-0.87-2.42c0-0.48,0.07-0.92,0.21-1.33c0.14-0.41,0.35-0.76,0.62-1.05
				c0.27-0.29,0.61-0.52,1.01-0.67c0.4-0.16,0.84-0.23,1.33-0.23c0.63,0,1.18,0.13,1.63,0.4c0.45,0.27,0.79,0.61,1.02,1.04
				c0.22,0.42,0.34,0.86,0.34,1.29c0,0.41-0.12,0.67-0.35,0.79C188.21,471,187.88,471.07,187.45,471.07z M184.28,470.14h2.94
				c-0.04-0.55-0.19-0.97-0.45-1.24c-0.26-0.28-0.6-0.41-1.02-0.41c-0.4,0-0.74,0.14-0.99,0.42
				C184.5,469.19,184.34,469.6,184.28,470.14z"/>
			<path id="XMLID_63_" class="st6" d="M194.84,471.84c0,0.45-0.11,0.83-0.33,1.15c-0.22,0.32-0.54,0.56-0.96,0.73
				c-0.43,0.16-0.94,0.25-1.55,0.25c-0.58,0-1.08-0.09-1.5-0.27c-0.42-0.18-0.72-0.4-0.92-0.67c-0.2-0.27-0.3-0.54-0.3-0.81
				c0-0.18,0.06-0.33,0.19-0.46c0.13-0.13,0.29-0.19,0.48-0.19c0.17,0,0.3,0.04,0.39,0.12c0.09,0.08,0.18,0.2,0.26,0.35
				c0.17,0.29,0.37,0.5,0.6,0.65c0.23,0.14,0.55,0.21,0.95,0.21c0.32,0,0.59-0.07,0.8-0.22c0.21-0.15,0.31-0.31,0.31-0.5
				c0-0.29-0.11-0.49-0.32-0.62c-0.22-0.13-0.57-0.26-1.07-0.37c-0.56-0.14-1.01-0.28-1.36-0.44c-0.35-0.15-0.63-0.35-0.84-0.6
				c-0.21-0.25-0.31-0.56-0.31-0.92c0-0.32,0.1-0.63,0.29-0.92c0.19-0.29,0.48-0.52,0.86-0.69c0.38-0.17,0.83-0.26,1.37-0.26
				c0.42,0,0.8,0.04,1.13,0.13c0.33,0.09,0.61,0.2,0.84,0.35c0.22,0.15,0.39,0.31,0.51,0.49c0.12,0.18,0.17,0.35,0.17,0.52
				c0,0.19-0.06,0.34-0.19,0.46c-0.12,0.12-0.3,0.18-0.53,0.18c-0.17,0-0.31-0.05-0.42-0.14c-0.12-0.09-0.25-0.24-0.4-0.43
				c-0.12-0.16-0.27-0.29-0.43-0.38c-0.17-0.1-0.39-0.14-0.68-0.14c-0.29,0-0.54,0.06-0.73,0.19c-0.19,0.12-0.29,0.28-0.29,0.47
				c0,0.17,0.07,0.31,0.21,0.42c0.14,0.11,0.33,0.2,0.58,0.27c0.24,0.07,0.57,0.16,1,0.26c0.5,0.12,0.91,0.27,1.23,0.44
				c0.32,0.17,0.56,0.37,0.72,0.6C194.76,471.28,194.84,471.55,194.84,471.84z"/>
			<path id="XMLID_60_" class="st6" d="M196.49,466.62c-0.23,0-0.42-0.07-0.58-0.21c-0.16-0.14-0.24-0.33-0.24-0.59
				c0-0.23,0.08-0.42,0.25-0.57c0.16-0.15,0.36-0.22,0.57-0.22c0.21,0,0.4,0.07,0.56,0.2c0.16,0.13,0.24,0.33,0.24,0.59
				c0,0.25-0.08,0.44-0.24,0.58C196.9,466.55,196.71,466.62,196.49,466.62z M197.3,468.29v4.68c0,0.32-0.08,0.57-0.23,0.74
				c-0.15,0.17-0.35,0.25-0.59,0.25c-0.24,0-0.43-0.08-0.58-0.26c-0.15-0.17-0.22-0.41-0.22-0.73v-4.64c0-0.32,0.07-0.56,0.22-0.72
				c0.15-0.16,0.34-0.24,0.58-0.24c0.24,0,0.43,0.08,0.59,0.24C197.22,467.78,197.3,468,197.3,468.29z"/>
			<path id="XMLID_57_" class="st6" d="M204.39,468.56v4.71c0,0.54-0.06,1-0.17,1.39c-0.11,0.39-0.3,0.71-0.55,0.96
				c-0.25,0.25-0.58,0.44-0.99,0.56c-0.41,0.12-0.92,0.18-1.53,0.18c-0.56,0-1.06-0.08-1.5-0.23c-0.44-0.16-0.78-0.36-1.01-0.61
				c-0.24-0.25-0.36-0.5-0.36-0.76c0-0.2,0.07-0.36,0.2-0.48c0.13-0.13,0.3-0.19,0.49-0.19c0.24,0,0.45,0.1,0.62,0.31
				c0.09,0.11,0.18,0.21,0.27,0.32c0.09,0.11,0.2,0.2,0.31,0.28c0.11,0.08,0.25,0.13,0.41,0.17c0.16,0.04,0.34,0.06,0.55,0.06
				c0.42,0,0.75-0.06,0.98-0.18c0.23-0.12,0.39-0.28,0.49-0.49c0.09-0.21,0.15-0.43,0.16-0.67c0.02-0.24,0.03-0.62,0.04-1.15
				c-0.25,0.35-0.54,0.61-0.86,0.8c-0.33,0.18-0.72,0.27-1.17,0.27c-0.54,0-1.02-0.14-1.42-0.42c-0.41-0.28-0.72-0.66-0.93-1.16
				c-0.22-0.5-0.33-1.07-0.33-1.73c0-0.49,0.07-0.93,0.2-1.32c0.13-0.39,0.32-0.72,0.57-0.99c0.25-0.27,0.53-0.47,0.85-0.61
				c0.32-0.14,0.67-0.21,1.06-0.21c0.46,0,0.86,0.09,1.19,0.26c0.34,0.18,0.65,0.45,0.94,0.83v-0.22c0-0.28,0.07-0.5,0.21-0.65
				c0.14-0.15,0.32-0.23,0.53-0.23c0.31,0,0.52,0.1,0.62,0.31C204.34,467.88,204.39,468.18,204.39,468.56z M199.7,470.61
				c0,0.66,0.14,1.15,0.43,1.49c0.29,0.34,0.66,0.51,1.11,0.51c0.27,0,0.52-0.07,0.76-0.22c0.24-0.14,0.43-0.36,0.59-0.65
				c0.15-0.29,0.23-0.64,0.23-1.06c0-0.66-0.15-1.18-0.44-1.54c-0.29-0.37-0.67-0.55-1.15-0.55c-0.46,0-0.83,0.18-1.11,0.53
				C199.84,469.46,199.7,469.96,199.7,470.61z"/>
			<path id="XMLID_55_" class="st6" d="M206.97,468.27v0.2c0.28-0.38,0.6-0.65,0.93-0.83c0.34-0.18,0.73-0.26,1.17-0.26
				c0.43,0,0.81,0.09,1.15,0.28c0.34,0.19,0.59,0.45,0.75,0.79c0.11,0.2,0.18,0.41,0.21,0.64c0.03,0.23,0.05,0.52,0.05,0.88v3.02
				c0,0.32-0.07,0.57-0.22,0.74c-0.15,0.17-0.34,0.25-0.58,0.25c-0.24,0-0.44-0.08-0.59-0.26c-0.15-0.17-0.23-0.41-0.23-0.73v-2.7
				c0-0.53-0.07-0.94-0.22-1.23c-0.15-0.28-0.44-0.42-0.89-0.42c-0.29,0-0.55,0.09-0.79,0.26c-0.24,0.17-0.41,0.41-0.52,0.71
				c-0.08,0.24-0.12,0.69-0.12,1.35v2.03c0,0.33-0.08,0.57-0.23,0.74c-0.15,0.16-0.35,0.25-0.59,0.25c-0.23,0-0.43-0.08-0.58-0.26
				c-0.15-0.17-0.23-0.41-0.23-0.73v-4.68c0-0.31,0.07-0.54,0.2-0.69c0.13-0.15,0.32-0.23,0.55-0.23c0.14,0,0.27,0.03,0.39,0.1
				c0.11,0.07,0.21,0.17,0.28,0.3C206.94,467.91,206.97,468.07,206.97,468.27z"/>
			<path id="XMLID_52_" class="st6" d="M216.83,471.07h-3.17c0,0.37,0.08,0.69,0.22,0.97c0.14,0.28,0.34,0.49,0.58,0.63
				c0.24,0.14,0.5,0.21,0.79,0.21c0.19,0,0.37-0.02,0.53-0.07c0.16-0.05,0.31-0.12,0.47-0.21c0.15-0.1,0.29-0.2,0.42-0.31
				c0.13-0.11,0.29-0.26,0.49-0.45c0.08-0.07,0.2-0.11,0.36-0.11c0.17,0,0.3,0.05,0.4,0.14c0.1,0.09,0.15,0.22,0.15,0.39
				c0,0.15-0.06,0.32-0.17,0.51c-0.12,0.2-0.29,0.38-0.52,0.56c-0.23,0.18-0.52,0.33-0.87,0.45c-0.35,0.12-0.75,0.18-1.21,0.18
				c-1.04,0-1.85-0.3-2.43-0.89c-0.58-0.59-0.87-1.4-0.87-2.42c0-0.48,0.07-0.92,0.21-1.33c0.14-0.41,0.35-0.76,0.62-1.05
				c0.27-0.29,0.61-0.52,1.01-0.67c0.4-0.16,0.84-0.23,1.33-0.23c0.63,0,1.18,0.13,1.63,0.4c0.45,0.27,0.79,0.61,1.02,1.04
				c0.23,0.42,0.34,0.86,0.34,1.29c0,0.41-0.12,0.67-0.35,0.79C217.58,471,217.25,471.07,216.83,471.07z M213.66,470.14h2.94
				c-0.04-0.55-0.19-0.97-0.45-1.24c-0.26-0.28-0.6-0.41-1.02-0.41c-0.4,0-0.74,0.14-0.99,0.42
				C213.87,469.19,213.72,469.6,213.66,470.14z"/>
			<path id="XMLID_49_" class="st6" d="M223.44,473.04v-0.16c-0.22,0.25-0.43,0.45-0.64,0.61c-0.21,0.16-0.44,0.28-0.69,0.36
				c-0.25,0.08-0.52,0.12-0.81,0.12c-0.39,0-0.75-0.08-1.08-0.25c-0.33-0.16-0.62-0.4-0.86-0.7c-0.24-0.3-0.42-0.66-0.55-1.07
				c-0.12-0.41-0.19-0.86-0.19-1.34c0-1.01,0.25-1.8,0.74-2.37c0.49-0.57,1.15-0.85,1.95-0.85c0.47,0,0.86,0.08,1.18,0.24
				c0.32,0.16,0.63,0.41,0.94,0.74v-2.39c0-0.33,0.07-0.58,0.2-0.75c0.13-0.17,0.32-0.26,0.57-0.26c0.25,0,0.43,0.08,0.57,0.23
				c0.13,0.16,0.2,0.39,0.2,0.69v7.15c0,0.31-0.07,0.54-0.21,0.69c-0.14,0.15-0.33,0.23-0.55,0.23c-0.22,0-0.4-0.08-0.55-0.24
				C223.51,473.56,223.44,473.33,223.44,473.04z M220.25,470.66c0,0.44,0.07,0.81,0.2,1.12c0.14,0.31,0.32,0.54,0.56,0.7
				c0.24,0.16,0.5,0.24,0.78,0.24c0.29,0,0.55-0.07,0.78-0.22c0.24-0.15,0.42-0.38,0.56-0.68c0.14-0.31,0.21-0.69,0.21-1.15
				c0-0.43-0.07-0.8-0.21-1.11c-0.14-0.31-0.33-0.55-0.57-0.71c-0.24-0.16-0.5-0.25-0.79-0.25c-0.3,0-0.56,0.08-0.8,0.25
				c-0.23,0.17-0.41,0.41-0.54,0.72C220.31,469.87,220.25,470.24,220.25,470.66z"/>
			<path id="XMLID_46_" class="st6" d="M230.06,465.89v2.47c0.3-0.32,0.62-0.56,0.93-0.73c0.32-0.17,0.71-0.25,1.18-0.25
				c0.54,0,1.01,0.13,1.42,0.38c0.4,0.26,0.72,0.63,0.94,1.11c0.22,0.48,0.34,1.06,0.34,1.72c0,0.49-0.06,0.94-0.19,1.35
				c-0.12,0.41-0.31,0.77-0.54,1.07c-0.24,0.3-0.53,0.53-0.86,0.7c-0.34,0.16-0.71,0.25-1.12,0.25c-0.25,0-0.48-0.03-0.7-0.09
				c-0.22-0.06-0.41-0.14-0.56-0.23c-0.15-0.1-0.29-0.2-0.39-0.3c-0.11-0.1-0.25-0.26-0.43-0.46v0.16c0,0.3-0.07,0.53-0.22,0.69
				c-0.15,0.16-0.33,0.23-0.56,0.23c-0.23,0-0.41-0.08-0.55-0.23c-0.14-0.16-0.2-0.39-0.2-0.69v-7.08c0-0.33,0.07-0.58,0.2-0.74
				c0.13-0.17,0.32-0.25,0.56-0.25c0.25,0,0.44,0.08,0.58,0.24C229.99,465.36,230.06,465.59,230.06,465.89z M230.14,470.7
				c0,0.64,0.15,1.14,0.44,1.49c0.29,0.35,0.68,0.52,1.16,0.52c0.41,0,0.76-0.18,1.05-0.53c0.29-0.35,0.44-0.86,0.44-1.52
				c0-0.43-0.06-0.8-0.18-1.1c-0.12-0.31-0.3-0.55-0.52-0.72c-0.23-0.17-0.49-0.25-0.79-0.25c-0.31,0-0.58,0.08-0.83,0.25
				c-0.24,0.17-0.43,0.41-0.57,0.73C230.21,469.88,230.14,470.26,230.14,470.7z"/>
			<path id="XMLID_44_" class="st6" d="M236.96,474.16l0.15-0.36l-1.99-5.02c-0.12-0.29-0.18-0.5-0.18-0.63
				c0-0.14,0.04-0.27,0.11-0.38c0.07-0.12,0.17-0.21,0.29-0.29c0.12-0.07,0.25-0.11,0.39-0.11c0.23,0,0.41,0.07,0.53,0.22
				c0.12,0.15,0.22,0.36,0.31,0.64l1.37,3.99l1.3-3.71c0.1-0.3,0.2-0.54,0.28-0.71c0.08-0.17,0.17-0.28,0.26-0.34
				c0.09-0.06,0.22-0.09,0.39-0.09c0.12,0,0.24,0.03,0.35,0.1c0.11,0.06,0.2,0.15,0.26,0.26c0.06,0.11,0.09,0.23,0.09,0.35
				c-0.02,0.07-0.04,0.18-0.08,0.32c-0.04,0.14-0.08,0.28-0.13,0.42l-2.11,5.53c-0.18,0.49-0.36,0.87-0.53,1.15
				c-0.17,0.28-0.4,0.49-0.69,0.64c-0.29,0.15-0.67,0.22-1.16,0.22c-0.47,0-0.83-0.05-1.07-0.15c-0.24-0.1-0.36-0.29-0.36-0.57
				c0-0.19,0.06-0.33,0.17-0.43c0.11-0.1,0.28-0.15,0.5-0.15c0.09,0,0.17,0.01,0.26,0.04c0.1,0.02,0.19,0.04,0.27,0.04
				c0.19,0,0.33-0.03,0.44-0.08c0.11-0.05,0.2-0.15,0.29-0.29C236.75,474.63,236.85,474.43,236.96,474.16z"/>
		</g>
		<g id="XMLID_21_">
			<path id="XMLID_42_" class="st6" d="M260.44,467.51h0.39v-0.49c0-0.51,0.06-0.91,0.19-1.21c0.13-0.3,0.35-0.52,0.65-0.65
				c0.31-0.14,0.73-0.2,1.26-0.2c0.95,0,1.42,0.23,1.42,0.7c0,0.15-0.05,0.28-0.15,0.38c-0.1,0.11-0.21,0.16-0.35,0.16
				c-0.06,0-0.17-0.01-0.33-0.04c-0.15-0.02-0.28-0.04-0.39-0.04c-0.29,0-0.48,0.09-0.57,0.26c-0.08,0.17-0.12,0.42-0.12,0.74v0.39
				h0.4c0.62,0,0.93,0.19,0.93,0.56c0,0.26-0.08,0.43-0.25,0.5c-0.16,0.07-0.39,0.11-0.68,0.11h-0.4v4.29
				c0,0.32-0.08,0.56-0.23,0.73c-0.15,0.17-0.35,0.25-0.59,0.25c-0.23,0-0.42-0.08-0.57-0.25c-0.15-0.17-0.23-0.41-0.23-0.73v-4.29
				h-0.45c-0.24,0-0.43-0.05-0.56-0.16c-0.13-0.11-0.2-0.25-0.2-0.42C259.63,467.7,259.9,467.51,260.44,467.51"/>
			<path id="XMLID_41_" class="st6" d="M265.75,471.62v1.35c0,0.33-0.08,0.57-0.23,0.74c-0.15,0.17-0.35,0.25-0.59,0.25
				c-0.24,0-0.43-0.08-0.58-0.25c-0.15-0.16-0.23-0.41-0.23-0.73v-4.51c0-0.73,0.26-1.09,0.79-1.09c0.27,0,0.46,0.08,0.58,0.26
				c0.12,0.17,0.18,0.42,0.2,0.75c0.19-0.33,0.39-0.58,0.59-0.75c0.21-0.17,0.48-0.26,0.82-0.26c0.34,0,0.67,0.08,0.99,0.26
				c0.32,0.17,0.48,0.4,0.48,0.68c0,0.2-0.07,0.36-0.2,0.49c-0.14,0.13-0.28,0.2-0.44,0.2c-0.06,0-0.21-0.04-0.43-0.11
				c-0.23-0.07-0.43-0.11-0.6-0.11c-0.24,0-0.43,0.06-0.58,0.19c-0.15,0.13-0.27,0.31-0.35,0.55c-0.08,0.25-0.14,0.54-0.17,0.88
				C265.76,470.72,265.75,471.13,265.75,471.62"/>
			<path id="XMLID_38_" class="st6" d="M273.2,471.06h-3.17c0.01,0.37,0.08,0.69,0.22,0.97c0.15,0.28,0.34,0.49,0.58,0.64
				c0.24,0.14,0.5,0.21,0.79,0.21c0.19,0,0.37-0.02,0.53-0.07c0.16-0.04,0.31-0.12,0.47-0.21c0.15-0.1,0.29-0.2,0.42-0.31
				c0.13-0.11,0.29-0.26,0.49-0.45c0.08-0.07,0.2-0.11,0.36-0.11c0.17,0,0.3,0.05,0.41,0.14c0.1,0.09,0.15,0.22,0.15,0.39
				c0,0.15-0.06,0.32-0.17,0.51c-0.12,0.2-0.29,0.39-0.52,0.57c-0.23,0.18-0.52,0.33-0.87,0.45c-0.35,0.12-0.75,0.18-1.21,0.18
				c-1.04,0-1.85-0.3-2.43-0.89c-0.58-0.59-0.87-1.4-0.87-2.42c0-0.48,0.07-0.92,0.22-1.33c0.14-0.41,0.35-0.76,0.62-1.05
				c0.27-0.29,0.61-0.52,1.01-0.67c0.4-0.16,0.84-0.23,1.33-0.23c0.63,0,1.18,0.13,1.63,0.4c0.45,0.26,0.8,0.61,1.02,1.03
				c0.23,0.42,0.34,0.85,0.34,1.3c0,0.41-0.12,0.67-0.35,0.79C273.95,471,273.62,471.06,273.2,471.06 M270.02,470.14h2.94
				c-0.04-0.55-0.19-0.97-0.45-1.24c-0.26-0.28-0.6-0.41-1.03-0.41c-0.4,0-0.74,0.14-0.99,0.42
				C270.24,469.18,270.08,469.6,270.02,470.14"/>
			<path id="XMLID_35_" class="st6" d="M279.94,471.06h-3.17c0,0.37,0.08,0.69,0.22,0.97c0.15,0.28,0.34,0.49,0.58,0.64
				c0.24,0.14,0.5,0.21,0.79,0.21c0.19,0,0.37-0.02,0.53-0.07c0.16-0.04,0.32-0.12,0.47-0.21c0.15-0.1,0.29-0.2,0.42-0.31
				c0.12-0.11,0.29-0.26,0.49-0.45c0.08-0.07,0.2-0.11,0.36-0.11c0.17,0,0.3,0.05,0.41,0.14c0.1,0.09,0.15,0.22,0.15,0.39
				c0,0.15-0.06,0.32-0.17,0.51c-0.11,0.2-0.28,0.39-0.52,0.57c-0.23,0.18-0.52,0.33-0.87,0.45c-0.35,0.12-0.75,0.18-1.21,0.18
				c-1.04,0-1.85-0.3-2.43-0.89c-0.58-0.59-0.87-1.4-0.87-2.42c0-0.48,0.07-0.92,0.22-1.33c0.14-0.41,0.35-0.76,0.62-1.05
				c0.27-0.29,0.61-0.52,1.01-0.67c0.4-0.16,0.84-0.23,1.33-0.23c0.63,0,1.17,0.13,1.63,0.4c0.45,0.26,0.79,0.61,1.01,1.03
				c0.22,0.42,0.34,0.85,0.34,1.3c0,0.41-0.12,0.67-0.35,0.79C280.69,471,280.36,471.06,279.94,471.06 M276.77,470.14h2.94
				c-0.04-0.55-0.19-0.97-0.45-1.24c-0.26-0.28-0.6-0.41-1.03-0.41c-0.4,0-0.73,0.14-1,0.42
				C276.98,469.18,276.82,469.6,276.77,470.14"/>
			<path id="XMLID_32_" class="st6" d="M283.49,468.28v0.19c0.3-0.38,0.62-0.65,0.95-0.83c0.32-0.18,0.7-0.27,1.11-0.27
				c0.5,0,0.96,0.13,1.38,0.39c0.42,0.26,0.75,0.63,0.99,1.13c0.24,0.5,0.37,1.08,0.37,1.76c0,0.5-0.07,0.96-0.21,1.38
				c-0.14,0.42-0.34,0.77-0.58,1.05c-0.25,0.28-0.53,0.5-0.87,0.65c-0.34,0.15-0.69,0.23-1.08,0.23c-0.46,0-0.85-0.09-1.17-0.28
				c-0.31-0.18-0.61-0.46-0.9-0.82v2.43c0,0.71-0.26,1.07-0.78,1.07c-0.31,0-0.51-0.09-0.61-0.27c-0.1-0.19-0.15-0.45-0.15-0.81v-7
				c0-0.31,0.07-0.54,0.2-0.69c0.13-0.15,0.32-0.23,0.55-0.23c0.23,0,0.42,0.08,0.56,0.23
				C283.42,467.76,283.49,467.98,283.49,468.28 M286.66,470.64c0-0.43-0.07-0.8-0.2-1.1c-0.13-0.31-0.31-0.54-0.54-0.7
				c-0.23-0.16-0.49-0.25-0.77-0.25c-0.45,0-0.82,0.18-1.13,0.53c-0.31,0.35-0.46,0.87-0.46,1.56c0,0.64,0.15,1.15,0.46,1.5
				c0.3,0.36,0.68,0.54,1.13,0.54c0.27,0,0.52-0.08,0.75-0.23c0.23-0.16,0.42-0.39,0.55-0.7
				C286.6,471.46,286.66,471.08,286.66,470.64"/>
			<path id="XMLID_29_" class="st6" d="M289.93,466.61c-0.23,0-0.42-0.07-0.58-0.21c-0.16-0.14-0.24-0.33-0.24-0.58
				c0-0.23,0.08-0.42,0.25-0.57c0.16-0.15,0.35-0.22,0.57-0.22c0.21,0,0.4,0.07,0.56,0.2c0.16,0.14,0.24,0.33,0.24,0.59
				c0,0.25-0.08,0.44-0.24,0.58C290.33,466.54,290.15,466.61,289.93,466.61 M290.73,468.29v4.69c0,0.32-0.08,0.57-0.23,0.73
				c-0.16,0.17-0.35,0.25-0.59,0.25c-0.24,0-0.43-0.08-0.58-0.25c-0.15-0.17-0.22-0.41-0.22-0.73v-4.64c0-0.32,0.08-0.56,0.22-0.72
				c0.15-0.16,0.34-0.24,0.58-0.24c0.24,0,0.43,0.08,0.59,0.24C290.65,467.78,290.73,468,290.73,468.29"/>
			<path id="XMLID_28_" class="st6" d="M295.95,473.22l-1.43-2.35l-0.88,0.83v1.29c0,0.31-0.08,0.55-0.25,0.72
				c-0.16,0.17-0.35,0.25-0.57,0.25c-0.25,0-0.45-0.08-0.59-0.25c-0.14-0.16-0.21-0.41-0.21-0.73v-6.91c0-0.36,0.07-0.63,0.21-0.82
				c0.14-0.19,0.34-0.28,0.6-0.28c0.25,0,0.45,0.09,0.59,0.26c0.15,0.17,0.22,0.42,0.22,0.75v3.93l1.82-1.91
				c0.23-0.24,0.4-0.4,0.52-0.49c0.12-0.09,0.26-0.13,0.43-0.13c0.2,0,0.37,0.06,0.51,0.19c0.13,0.13,0.2,0.29,0.2,0.48
				c0,0.24-0.22,0.56-0.66,0.95l-0.86,0.79l1.66,2.61c0.12,0.2,0.21,0.34,0.26,0.44c0.05,0.1,0.08,0.2,0.08,0.29
				c0,0.26-0.07,0.46-0.21,0.61c-0.14,0.15-0.33,0.22-0.55,0.22c-0.2,0-0.35-0.05-0.46-0.16
				C296.28,473.69,296.13,473.5,295.95,473.22"/>
			<path id="XMLID_27_" class="st6" d="M299.47,473.96c-0.25,0-0.46-0.08-0.63-0.24c-0.18-0.15-0.27-0.38-0.27-0.67
				c0-0.24,0.09-0.45,0.26-0.62c0.17-0.17,0.38-0.26,0.63-0.26c0.25,0,0.46,0.09,0.64,0.26c0.17,0.17,0.26,0.38,0.26,0.63
				c0,0.28-0.09,0.51-0.26,0.66C299.92,473.88,299.71,473.96,299.47,473.96"/>
			<path id="XMLID_26_" class="st6" d="M307.54,471.95c0,0.2-0.06,0.42-0.18,0.65c-0.12,0.23-0.31,0.45-0.55,0.66
				c-0.25,0.21-0.56,0.38-0.93,0.5c-0.38,0.13-0.8,0.19-1.27,0.19c-1,0-1.79-0.29-2.35-0.88c-0.56-0.58-0.84-1.37-0.84-2.35
				c0-0.67,0.13-1.25,0.39-1.77c0.26-0.51,0.63-0.9,1.11-1.18c0.49-0.28,1.07-0.42,1.75-0.42c0.42,0,0.8,0.06,1.16,0.18
				c0.35,0.12,0.65,0.28,0.89,0.47c0.24,0.2,0.43,0.4,0.56,0.62c0.13,0.22,0.19,0.42,0.19,0.62c0,0.19-0.07,0.36-0.21,0.49
				c-0.15,0.13-0.32,0.2-0.52,0.2c-0.14,0-0.25-0.04-0.34-0.1c-0.09-0.07-0.19-0.18-0.3-0.34c-0.2-0.3-0.4-0.53-0.62-0.68
				c-0.21-0.15-0.49-0.23-0.82-0.23c-0.48,0-0.86,0.19-1.16,0.56c-0.29,0.37-0.44,0.89-0.44,1.53c0,0.31,0.04,0.59,0.11,0.84
				c0.07,0.25,0.18,0.47,0.32,0.65c0.14,0.18,0.32,0.32,0.52,0.41c0.2,0.1,0.43,0.14,0.67,0.14c0.33,0,0.6-0.08,0.83-0.23
				c0.24-0.15,0.44-0.38,0.62-0.69c0.1-0.18,0.21-0.32,0.32-0.43c0.11-0.1,0.26-0.16,0.42-0.16c0.2,0,0.36,0.08,0.49,0.23
				C307.47,471.62,307.54,471.78,307.54,471.95"/>
			<path id="XMLID_23_" class="st6" d="M314.53,470.67c0,0.48-0.08,0.93-0.22,1.34c-0.15,0.41-0.37,0.76-0.66,1.05
				c-0.28,0.29-0.63,0.52-1.02,0.68c-0.4,0.15-0.84,0.23-1.34,0.23c-0.49,0-0.93-0.08-1.33-0.24c-0.39-0.15-0.73-0.38-1.02-0.68
				c-0.29-0.3-0.51-0.65-0.66-1.05c-0.14-0.4-0.22-0.85-0.22-1.33c0-0.49,0.08-0.94,0.22-1.35c0.15-0.41,0.37-0.76,0.65-1.05
				c0.28-0.29,0.62-0.51,1.02-0.67c0.4-0.15,0.84-0.23,1.33-0.23c0.49,0,0.94,0.08,1.34,0.24c0.4,0.16,0.74,0.38,1.03,0.68
				c0.29,0.3,0.5,0.64,0.65,1.04C314.46,469.73,314.53,470.18,314.53,470.67 M312.9,470.67c0-0.66-0.15-1.18-0.44-1.54
				c-0.29-0.37-0.68-0.56-1.17-0.56c-0.32,0-0.6,0.08-0.84,0.25c-0.24,0.16-0.43,0.41-0.56,0.73c-0.13,0.32-0.2,0.7-0.2,1.12
				c0,0.42,0.06,0.79,0.19,1.11c0.13,0.32,0.31,0.56,0.55,0.73c0.24,0.17,0.52,0.25,0.84,0.25c0.49,0,0.88-0.19,1.17-0.56
				C312.76,471.83,312.9,471.32,312.9,470.67"/>
			<path id="XMLID_22_" class="st6" d="M320.71,470.78v2.15c0,0.34-0.08,0.59-0.23,0.77c-0.16,0.17-0.36,0.26-0.61,0.26
				c-0.25,0-0.45-0.08-0.59-0.26c-0.15-0.17-0.23-0.42-0.23-0.77v-2.58c0-0.41-0.01-0.73-0.04-0.95c-0.03-0.22-0.1-0.41-0.23-0.55
				c-0.12-0.15-0.32-0.22-0.58-0.22c-0.53,0-0.88,0.18-1.05,0.55c-0.17,0.36-0.25,0.88-0.25,1.57v2.19c0,0.34-0.08,0.59-0.23,0.76
				c-0.16,0.17-0.36,0.26-0.6,0.26c-0.25,0-0.45-0.09-0.6-0.26c-0.16-0.17-0.24-0.43-0.24-0.76v-4.64c0-0.31,0.07-0.54,0.21-0.69
				c0.14-0.16,0.33-0.24,0.56-0.24c0.22,0,0.41,0.08,0.56,0.22c0.15,0.15,0.22,0.35,0.22,0.62v0.15c0.28-0.33,0.58-0.58,0.9-0.74
				c0.32-0.16,0.68-0.24,1.07-0.24c0.41,0,0.76,0.08,1.05,0.24c0.29,0.16,0.53,0.41,0.73,0.73c0.27-0.33,0.57-0.58,0.88-0.74
				c0.31-0.16,0.66-0.24,1.04-0.24c0.44,0,0.83,0.09,1.15,0.26c0.32,0.17,0.56,0.42,0.72,0.75c0.14,0.3,0.21,0.76,0.21,1.39v3.16
				c0,0.34-0.08,0.59-0.23,0.77c-0.15,0.17-0.36,0.26-0.61,0.26c-0.25,0-0.45-0.09-0.6-0.26c-0.16-0.17-0.24-0.43-0.24-0.76v-2.73
				c0-0.35-0.01-0.63-0.04-0.84c-0.03-0.21-0.11-0.39-0.24-0.53c-0.13-0.14-0.33-0.21-0.6-0.21c-0.21,0-0.42,0.07-0.61,0.19
				c-0.19,0.12-0.34,0.3-0.45,0.51C320.77,469.61,320.71,470.09,320.71,470.78"/>
		</g>
		<g id="XMLID_3_">
			<path id="XMLID_20_" class="st6" d="M245.27,470.27c0,0,0-0.01,0-0.01C245.27,470.27,245.27,470.27,245.27,470.27z"/>
			<path id="XMLID_19_" class="st6" d="M245.35,470.79C245.36,470.79,245.36,470.79,245.35,470.79c-0.03-0.15-0.05-0.29-0.07-0.44
				C245.3,470.5,245.32,470.65,245.35,470.79z"/>
			<path id="XMLID_17_" class="st6" d="M245.89,472.3c0-0.01-0.01-0.01-0.01-0.02C245.88,472.28,245.89,472.29,245.89,472.3z"/>
			<path id="XMLID_16_" class="st6" d="M245.84,472.2c-0.01-0.03-0.03-0.06-0.04-0.08C245.81,472.14,245.83,472.17,245.84,472.2z"/>
			<path id="XMLID_15_" class="st6" d="M245.5,471.37c0.08,0.25,0.17,0.49,0.29,0.72C245.68,471.86,245.58,471.62,245.5,471.37
				C245.51,471.37,245.51,471.37,245.5,471.37z"/>
			<path id="XMLID_14_" class="st6" d="M251.55,464.06c0.31,0,0.54,0.02,0.81,0.07l0.08-0.48c0,0-0.73-0.22-1.69-0.15l-0.08-0.26
				c0.3-0.06,0.52-0.33,0.52-0.65c0-0.36-0.3-0.66-0.66-0.66s-0.66,0.29-0.66,0.66c0,0.32,0.22,0.58,0.52,0.65l0.08,0.29
				c-1.02,0.14-1.83,0.54-1.83,0.54l0.14,0.44c0.62-0.21,1.15-0.33,1.64-0.38C250.9,464.09,251.25,464.06,251.55,464.06z"/>
			<path id="XMLID_13_" class="st6" d="M245.88,466.47L245.88,466.47c0.03-0.04,0.05-0.06,0.07-0.09l-0.2-0.14l-0.3-0.22
				c-0.02,0.02-0.5,0.47-0.88,1.28c-0.02-0.03-0.03-0.05-0.06-0.07c-0.11-0.12-0.27-0.19-0.47-0.18c0,0-0.01,0-0.01,0
				c-0.12,0-0.21-0.04-0.27-0.09c0.06-0.07,0.09-0.16,0.09-0.26c0-0.23-0.19-0.42-0.42-0.42c-0.23,0-0.42,0.19-0.42,0.42
				c0,0.23,0.19,0.42,0.42,0.42c0.04,0,0.07-0.01,0.1-0.01c0.1,0.11,0.27,0.21,0.5,0.21c0.12,0,0.21,0.03,0.27,0.1
				c0.07,0.08,0.09,0.18,0.1,0.27c0,0,0,0,0,0c-0.27,0.74-0.19,1.67-0.19,1.67l0.66,0.03c0.01-0.34,0.06-0.93,0.23-1.39
				C245.45,467.07,245.86,466.5,245.88,466.47z"/>
			<path id="XMLID_11_" class="st6" d="M257.29,464.62c-0.23,0-0.42,0.19-0.42,0.42c0,0.04,0,0.07,0.01,0.1
				c-0.11,0.1-0.21,0.27-0.21,0.51c0,0.12-0.03,0.21-0.1,0.27c-0.05,0.05-0.12,0.07-0.18,0.09c-0.49-0.69-1.1-1.11-1.1-1.11
				l-0.47,0.51c0.36,0.33,0.73,0.73,1.08,1.24c0.25,0.35,0.5,0.81,0.71,1.26l0.64-0.3c0,0-0.29-0.72-0.7-1.37
				c0.07-0.03,0.14-0.06,0.21-0.12c0.13-0.11,0.19-0.27,0.18-0.47c0-0.13,0.04-0.22,0.09-0.28c0.07,0.05,0.16,0.09,0.26,0.09
				c0.23,0,0.42-0.19,0.42-0.42C257.71,464.8,257.53,464.62,257.29,464.62z"/>
			<path id="XMLID_9_" class="st6" d="M255.63,470.37c-0.88,0.43-2.33,1-4.24,1.26c-0.75,0.1-1.47,0.14-2.14,0.14
				c-0.87,0-1.64-0.06-2.23-0.14c-0.67-0.08-1.2-0.19-1.52-0.26c0.08,0.25,0.17,0.49,0.28,0.72c0,0.01,0,0.01,0.01,0.02
				c0.01,0.03,0.03,0.06,0.04,0.08c0.01,0.03,0.03,0.05,0.04,0.08c0,0.01,0.01,0.01,0.01,0.02c0.19,0.36,0.42,0.68,0.68,0.97
				c0.9,0.98,1.82,1.14,1.83,1.14l0.01,0l0.01,0c0.01,0,0.82,0.27,2.06,0.27c1.22,0,2.41-0.25,3.55-0.73
				c0.84-0.43,1.64-1.09,2.03-1.67c0.31-0.45,0.53-0.93,0.66-1.43c0.07-0.27,0.12-0.69,0.09-1.14
				C256.56,469.87,256.16,470.11,255.63,470.37z"/>
			<path id="XMLID_5_" class="st6" d="M246.16,466.68c-0.03,0.04-0.41,0.58-0.71,1.41c-0.23,0.62-0.22,1.53-0.22,1.54v0
				c0,0.21,0.01,0.42,0.04,0.63c0,0,0,0.01,0,0.01c0,0.03,0.01,0.05,0.01,0.08c0.02,0.15,0.04,0.29,0.07,0.44
				c0.44,0.11,3.05,0.72,5.97,0.31c1.83-0.26,3.22-0.8,4.06-1.2c0.7-0.34,1.15-0.65,1.32-0.77c-0.17-0.64-0.65-1.65-1.09-2.28
				c-1.25-1.79-2.6-2.25-3.3-2.36c-0.26-0.04-0.48-0.07-0.78-0.07c-0.28,0-0.63,0.02-1.09,0.07c-0.46,0.05-0.98,0.17-1.58,0.37
				c-0.84,0.28-1.6,0.72-2.2,1.28l-0.02,0.02C246.56,466.24,246.37,466.41,246.16,466.68z M253.83,466.27c0.6,0,1.09,0.49,1.09,1.09
				c0,0.6-0.49,1.09-1.09,1.09c-0.6,0-1.09-0.49-1.09-1.09C252.74,466.76,253.23,466.27,253.83,466.27z M248.68,466.22
				c0.97,0,1.76,0.79,1.76,1.76c0,0.97-0.79,1.76-1.76,1.76c-0.97,0-1.76-0.79-1.76-1.76C246.92,467.01,247.71,466.22,248.68,466.22
				z"/>
		</g>
	</g>
</g>
<g id="OBJECTS">
	<g>
		<g>
			<circle class="st2" cx="250" cy="241.97" r="205.94"/>
			<path class="st7" d="M250,448.91c-114.11,0-206.94-92.83-206.94-206.94S135.89,35.03,250,35.03s206.94,92.83,206.94,206.94
				S364.11,448.91,250,448.91z M250,37.03c-113,0-204.94,91.94-204.94,204.94c0,113,91.94,204.94,204.94,204.94
				s204.94-91.94,204.94-204.94C454.94,128.96,363,37.03,250,37.03z"/>
		</g>
		<text transform="matrix(1 0 0 1 202.6675 265.5742)" class="st6 st8 st9">SECURITY</text>
		<g>
			<g>
				<rect x="311.19" y="238.97" class="st7" width="89.37" height="6"/>
			</g>
			<g>
				
					<rect x="258.25" y="147.28" transform="matrix(0.5001 -0.866 0.866 0.5001 21.3124 337.47)" class="st7" width="89.37" height="6"/>
			</g>
			<g>
				
					<rect x="194.06" y="105.59" transform="matrix(0.866 -0.5 0.5 0.866 -48.7369 118.6637)" class="st7" width="6" height="89.37"/>
			</g>
			<g>
				<rect x="99.44" y="238.97" class="st7" width="89.37" height="6"/>
			</g>
			<g>
				
					<rect x="152.38" y="330.66" transform="matrix(0.5001 -0.866 0.866 0.5001 -190.4268 337.4623)" class="st7" width="89.37" height="6"/>
			</g>
			<g>
				
					<rect x="299.94" y="288.98" transform="matrix(0.866 -0.5 0.5 0.866 -126.2446 196.1746)" class="st7" width="6" height="89.37"/>
			</g>
			<g>
				<path class="st7" d="M249.75,395.59c-26.61,0-52.87-6.98-76.53-20.64c-35.52-20.51-60.93-53.62-71.55-93.24
					c-10.62-39.62-5.17-81,15.34-116.52c42.34-73.33,136.44-98.54,209.77-56.21c35.52,20.51,60.93,53.62,71.55,93.24
					c10.62,39.62,5.17,81-15.34,116.52c-20.51,35.52-53.62,60.93-93.24,71.55C276.52,393.84,263.09,395.59,249.75,395.59z
					 M250.25,94.44c-51.04,0-100.74,26.46-128.04,73.75c-19.71,34.13-24.94,73.9-14.74,111.97c10.2,38.07,34.62,69.89,68.75,89.6
					c34.13,19.71,73.9,24.94,111.97,14.74c38.07-10.2,69.89-34.62,89.6-68.75c19.71-34.13,24.94-73.9,14.74-111.97
					c-10.2-38.07-34.62-69.89-68.75-89.6C300.6,100.8,275.26,94.44,250.25,94.44z"/>
			</g>
		</g>
		<g>
			<g>
				<rect x="307.13" y="240.97" class="st7" width="83.44" height="2"/>
			</g>
			<g>
				
					<rect x="257.71" y="155.36" transform="matrix(0.4999 -0.8661 0.8661 0.4999 14.3149 337.5153)" class="st7" width="83.44" height="2"/>
			</g>
			<g>
				<rect x="199.58" y="114.64" transform="matrix(0.866 -0.5 0.5 0.866 -51.3092 121.238)" class="st7" width="2" height="83.44"/>
			</g>
			<g>
				<rect x="109.43" y="240.97" class="st7" width="83.44" height="2"/>
			</g>
			<g>
				
					<rect x="158.86" y="326.57" transform="matrix(0.4999 -0.8661 0.8661 0.4999 -183.3991 337.5259)" class="st7" width="83.44" height="2"/>
			</g>
			<g>
				
					<rect x="298.42" y="285.86" transform="matrix(0.866 -0.5 0.5 0.866 -123.6728 193.6024)" class="st7" width="2" height="83.44"/>
			</g>
			<g>
				<path class="st7" d="M249.77,383.6c-24.53,0-48.74-6.43-70.55-19.03c-32.75-18.91-56.17-49.44-65.96-85.96
					c-9.79-36.53-4.76-74.68,14.14-107.42c18.91-32.75,49.44-56.17,85.96-65.96c36.52-9.79,74.68-4.76,107.42,14.14
					c67.6,39.03,90.85,125.78,51.82,193.39c-18.91,32.75-49.44,56.17-85.96,65.96C274.45,381.98,262.06,383.6,249.77,383.6z
					 M250.23,102.34c-12.12,0-24.33,1.59-36.35,4.82c-36.01,9.65-66.11,32.74-84.75,65.03c-18.64,32.29-23.59,69.9-13.94,105.91
					c9.65,36.01,32.74,66.11,65.03,84.75c66.65,38.48,152.17,15.56,190.65-51.08c38.48-66.65,15.56-152.17-51.08-190.65
					C298.28,108.68,274.41,102.34,250.23,102.34z"/>
			</g>
		</g>
		<g>
			<circle class="st2" cx="325.28" cy="111.58" r="35.4"/>
			<path class="st7" d="M325.28,149.98c-21.17,0-38.4-17.23-38.4-38.4c0-21.17,17.23-38.4,38.4-38.4c21.17,0,38.4,17.23,38.4,38.4
				C363.68,132.75,346.45,149.98,325.28,149.98z M325.28,79.18c-17.86,0-32.4,14.53-32.4,32.4s14.53,32.4,32.4,32.4
				c17.86,0,32.4-14.53,32.4-32.4S343.14,79.18,325.28,79.18z"/>
		</g>
		<g>
			<circle class="st2" cx="174.72" cy="111.58" r="35.4"/>
			<path class="st7" d="M174.72,149.98c-21.17,0-38.4-17.23-38.4-38.4c0-21.17,17.23-38.4,38.4-38.4c21.17,0,38.4,17.23,38.4,38.4
				C213.12,132.75,195.89,149.98,174.72,149.98z M174.72,79.18c-17.86,0-32.4,14.53-32.4,32.4s14.53,32.4,32.4,32.4
				c17.86,0,32.4-14.53,32.4-32.4S192.58,79.18,174.72,79.18z"/>
		</g>
		<g>
			<circle class="st2" cx="99.44" cy="241.97" r="35.4"/>
			<path class="st7" d="M99.44,280.37c-21.17,0-38.4-17.23-38.4-38.4c0-21.17,17.23-38.4,38.4-38.4c21.17,0,38.4,17.23,38.4,38.4
				C137.84,263.14,120.61,280.37,99.44,280.37z M99.44,209.57c-17.86,0-32.4,14.53-32.4,32.4c0,17.86,14.53,32.4,32.4,32.4
				c17.86,0,32.4-14.53,32.4-32.4C131.84,224.1,117.3,209.57,99.44,209.57z"/>
		</g>
		<g>
			<circle class="st2" cx="174.72" cy="372.36" r="35.4"/>
			<path class="st7" d="M174.72,410.75c-21.17,0-38.4-17.23-38.4-38.4c0-21.17,17.23-38.4,38.4-38.4c21.17,0,38.4,17.22,38.4,38.4
				C213.12,393.53,195.89,410.75,174.72,410.75z M174.72,339.96c-17.86,0-32.4,14.53-32.4,32.4c0,17.86,14.53,32.4,32.4,32.4
				c17.86,0,32.4-14.53,32.4-32.4C207.12,354.49,192.58,339.96,174.72,339.96z"/>
		</g>
		<g>
			<circle class="st2" cx="325.28" cy="372.36" r="35.4"/>
			<path class="st7" d="M325.28,410.75c-21.17,0-38.4-17.23-38.4-38.4c0-21.17,17.23-38.4,38.4-38.4c21.17,0,38.4,17.22,38.4,38.4
				C363.68,393.53,346.45,410.75,325.28,410.75z M325.28,339.96c-17.86,0-32.4,14.53-32.4,32.4c0,17.86,14.53,32.4,32.4,32.4
				c17.86,0,32.4-14.53,32.4-32.4C357.68,354.49,343.14,339.96,325.28,339.96z"/>
		</g>
		<g>
			<circle class="st2" cx="400.59" cy="241.97" r="35.4"/>
			<path class="st7" d="M400.58,280.37c-21.17,0-38.4-17.23-38.4-38.4c0-21.17,17.23-38.4,38.4-38.4c21.17,0,38.4,17.23,38.4,38.4
				C438.98,263.14,421.76,280.37,400.58,280.37z M400.58,209.57c-17.86,0-32.4,14.53-32.4,32.4c0,17.86,14.53,32.4,32.4,32.4
				c17.86,0,32.4-14.53,32.4-32.4C432.98,224.1,418.45,209.57,400.58,209.57z"/>
		</g>
		<g>
			<g>
				<g class="st10">
					<path class="st11" d="M343.16,74.55c-0.36-0.21-0.86-0.18-1.42,0.14l-32.96,19.03l9.61,5.59l32.96-19.03
						c0.55-0.32,1.06-0.35,1.42-0.14L343.16,74.55z"/>
					<path class="st12" d="M318.4,99.3l-9.61-5.59c-1.1,0.64-1.99,2.18-1.99,3.44l0.08,26.79c0,0.61,0.22,1.06,0.58,1.28l9.61,5.59
						c-0.37-0.21-0.58-0.67-0.58-1.28l-0.08-26.79C316.4,101.48,317.29,99.94,318.4,99.3z"/>
					<g>
						<path class="st13" d="M351.36,80.27c1.1-0.64,2-0.12,2,1.14l0.08,26.79c0,0.82-0.38,1.81-1,2.57l-14.77,18.19
							c-0.83,1.02-1.75,1.82-2.67,2.35c-0.92,0.53-1.84,0.79-2.67,0.73l-14.82-1.11c-0.63-0.05-1.01-0.58-1.02-1.41l-0.08-26.79
							c0-1.26,0.88-2.81,1.99-3.44L351.36,80.27z"/>
					</g>
				</g>
			</g>
			<g>
				<g class="st10">
					<g>
						<path class="st14" d="M341.11,68.57c1.97-1.13,3.57-0.22,3.58,2.04l0.03,11.16l-2.58,1.49l-0.03-11.16
							c0-0.63-0.44-0.88-0.99-0.57l-17.26,9.97c-0.54,0.31-0.99,1.08-0.98,1.7l0.03,11.16l-2.58,1.49L320.3,84.7
							c-0.01-2.26,1.59-5.02,3.56-6.16L341.11,68.57z"/>
					</g>
					<g>
						<path class="st15" d="M342.09,71.89c0-0.02-0.01-0.03-0.02-0.05c-0.01-0.04-0.02-0.09-0.04-0.13
							c-0.01-0.02-0.02-0.04-0.04-0.06c-0.02-0.03-0.03-0.06-0.05-0.08c-0.02-0.02-0.04-0.03-0.05-0.05
							c-0.02-0.02-0.04-0.04-0.07-0.05l0,0c-0.18-0.1-0.43-0.09-0.7,0.07l-3.81,2.2l0.02,6.74l4.81,2.79l-0.03-11.16
							C342.11,72.02,342.1,71.95,342.09,71.89z"/>
					</g>
				</g>
			</g>
			<g>
				<path class="st15" d="M315.49,81.9l0.03,11.16l4.81,2.79L320.3,84.7c0-1.14,0.4-2.41,1.06-3.53l-4.81-2.78
					C315.89,79.5,315.49,80.77,315.49,81.9z"/>
				<path class="st16" d="M338.84,65.53c-0.65-0.38-1.55-0.32-2.53,0.25l-17.26,9.97c-0.98,0.56-1.86,1.53-2.51,2.64l4.81,2.78
					c0.64-1.1,1.53-2.07,2.5-2.63l17.26-9.97c0.99-0.57,1.89-0.62,2.53-0.25L338.84,65.53z"/>
			</g>
			<path class="st6" d="M339.73,100.53c0-2.02-1.64-2.71-3.65-1.54c-2.02,1.16-3.65,3.74-3.65,5.76c0,1.25,0.63,1.99,1.59,2.09
				l-1.59,10.79l7.3-4.22l-1.59-8.95C339.1,103.25,339.73,101.79,339.73,100.53z"/>
		</g>
		<g>
			<g>
				<path class="st6" d="M122.36,214.43c0.69-0.4,1.26-0.08,1.26,0.72l0.1,34.36c0,0.8-0.56,1.77-1.25,2.16l-18.18,10.5
					c-0.69,0.4-1.25,0.08-1.26-0.72l-0.1-34.36c0-0.8,0.56-1.76,1.25-2.16L122.36,214.43z"/>
				<path class="st14" d="M104.93,227.08c0.01-0.11,0.16-0.36,0.26-0.43l16.43-9.49l0.09,12.31c-0.01,0.11-0.16,0.36-0.26,0.44
					l-16.43,9.48L104.93,227.08z"/>
			</g>
			<g>
				<path class="st17" d="M74.73,210.7l0.1,34.36c0,0.4,0.14,0.67,0.37,0.81l28.19,16.38c-0.23-0.13-0.36-0.41-0.37-0.81l-0.1-34.36
					c0-0.36,0.12-0.76,0.31-1.12L75,209.67C74.83,210.01,74.73,210.37,74.73,210.7z"/>
				<path class="st18" d="M95.06,197.96c-0.23-0.13-0.54-0.11-0.89,0.09l-18.18,10.5c-0.4,0.23-0.75,0.66-0.98,1.13l28.23,16.3
					c0.23-0.44,0.56-0.83,0.94-1.04l18.18-10.5c0.35-0.2,0.66-0.22,0.89-0.09L95.06,197.96z"/>
			</g>
			<g>
				<g>
					<path class="st13" d="M109.76,241.99c1.12-0.65,2.03-0.13,2.03,1.16c0,1.29-0.9,2.85-2.02,3.5c-1.12,0.65-2.03,0.13-2.03-1.16
						C107.74,244.21,108.65,242.64,109.76,241.99z"/>
				</g>
				<g>
					<path class="st11" d="M109.76,241.99c0.56-0.32,1.07-0.36,1.44-0.14l-2.82-1.64c-0.37-0.21-0.88-0.18-1.44,0.14
						c-0.78,0.45-1.45,1.35-1.78,2.28l2.82,1.63C108.32,243.33,108.99,242.44,109.76,241.99z"/>
					<path class="st12" d="M107.75,245.49c0-0.39,0.09-0.81,0.24-1.22l-2.82-1.63c-0.15,0.41-0.24,0.82-0.24,1.21
						c0,0.64,0.23,1.09,0.59,1.3l2.82,1.64C107.97,246.58,107.75,246.13,107.75,245.49z"/>
				</g>
			</g>
			<g>
				<g>
					<path class="st19" d="M115.99,238.57c1.12-0.65,2.03-0.13,2.03,1.16c0,1.29-0.9,2.85-2.02,3.5c-1.12,0.65-2.03,0.13-2.03-1.16
						C113.97,240.78,114.88,239.22,115.99,238.57z"/>
				</g>
				<g>
					<path class="st20" d="M115.99,238.57c0.56-0.32,1.07-0.36,1.44-0.14l-2.82-1.64c-0.37-0.21-0.88-0.18-1.44,0.14
						c-0.78,0.45-1.45,1.35-1.78,2.28l2.82,1.63C114.55,239.91,115.22,239.02,115.99,238.57z"/>
					<path class="st21" d="M113.98,242.07c0-0.39,0.09-0.81,0.24-1.22l-2.82-1.63c-0.15,0.41-0.24,0.82-0.24,1.21
						c0,0.64,0.23,1.09,0.59,1.3l2.82,1.64C114.2,243.15,113.98,242.7,113.98,242.07z"/>
				</g>
			</g>
			<g>
				<g>
					<path class="st22" d="M122.06,234.93c1.12-0.65,2.03-0.13,2.03,1.16c0,1.29-0.9,2.85-2.02,3.5c-1.12,0.65-2.03,0.13-2.03-1.16
						C120.04,237.14,120.94,235.58,122.06,234.93z"/>
				</g>
				<g>
					<path class="st23" d="M122.06,234.93c0.56-0.32,1.07-0.36,1.44-0.14l-2.82-1.64c-0.37-0.21-0.88-0.18-1.44,0.14
						c-0.78,0.45-1.45,1.35-1.78,2.28l2.82,1.63C120.62,236.27,121.29,235.38,122.06,234.93z"/>
					<path class="st24" d="M120.04,238.43c0-0.39,0.09-0.81,0.24-1.22l-2.82-1.63c-0.15,0.41-0.24,0.82-0.24,1.21
						c0,0.64,0.23,1.09,0.59,1.3l2.82,1.64C120.27,239.52,120.05,239.07,120.04,238.43z"/>
				</g>
			</g>
		</g>
		<g>
			<g>
				<path class="st6" d="M362.61,359.12c0.27-0.16,0.5-0.03,0.5,0.29l0.04,12.45c0,0.31-0.22,0.7-0.5,0.86l-41.44,23.93
					c-0.28,0.16-0.5,0.03-0.5-0.28l-0.04-12.45c0-0.31,0.22-0.7,0.5-0.86L362.61,359.12z"/>
				<polygon class="st14" points="344.49,372.51 360.76,362.91 360.78,371.07 344.52,380.68 				"/>
			</g>
			<g>
				<path class="st18" d="M329.72,339.77c-0.09-0.05-0.22-0.05-0.35,0.03l-41.44,23.93c-0.14,0.08-0.27,0.22-0.36,0.38l33.31,19.23
					c0.08-0.12,0.18-0.23,0.29-0.29l41.44-23.93c0.14-0.08,0.26-0.09,0.35-0.03L329.72,339.77z"/>
				<g>
					<path class="st6" d="M320.76,381.14l-29.64-17.11l38.44-22.2L359.1,359L320.76,381.14z M293.12,364.03l27.64,15.96L357.11,359
						l-27.55-16.01L293.12,364.03z"/>
				</g>
				<path class="st17" d="M287.42,364.59l0.04,12.45c0,0.16,0.06,0.27,0.14,0.32l33.24,19.32c-0.09-0.05-0.14-0.16-0.14-0.32
					l-0.04-12.45c0-0.19,0.08-0.39,0.2-0.57l-33.31-19.23C287.47,364.27,287.42,364.44,287.42,364.59z"/>
			</g>
			<g>
				<g>
					<path class="st13" d="M329.28,384.17c0.21-0.12,0.38-0.03,0.38,0.22l0.01,3.42c0,0.24-0.17,0.53-0.38,0.65l-2.98,1.72
						c-0.21,0.12-0.38,0.03-0.38-0.21l-0.01-3.42c0-0.24,0.17-0.54,0.38-0.66L329.28,384.17z"/>
				</g>
				<g>
					<path class="st11" d="M326.3,385.89l2.98-1.72c0.11-0.06,0.2-0.07,0.27-0.03l-1.33-0.77c-0.07-0.04-0.16-0.03-0.27,0.03
						l-2.98,1.72c-0.11,0.06-0.21,0.18-0.28,0.31l1.33,0.77C326.09,386.06,326.19,385.95,326.3,385.89z"/>
					<path class="st12" d="M325.92,386.54c0-0.11,0.04-0.24,0.1-0.35l-1.33-0.77c-0.06,0.11-0.1,0.24-0.1,0.35l0.01,3.42
						c0,0.12,0.04,0.2,0.11,0.24l1.33,0.77c-0.07-0.04-0.11-0.12-0.11-0.24L325.92,386.54z"/>
				</g>
			</g>
			<g>
				<g>
					<path class="st19" d="M335.42,380.73c0.21-0.12,0.38-0.03,0.38,0.22l0.01,3.42c0,0.24-0.17,0.53-0.38,0.65l-2.98,1.72
						c-0.21,0.12-0.38,0.03-0.38-0.21l-0.01-3.42c0-0.24,0.17-0.54,0.38-0.66L335.42,380.73z"/>
				</g>
				<g>
					<path class="st20" d="M332.44,382.45l2.98-1.72c0.11-0.06,0.2-0.07,0.27-0.03l-1.33-0.77c-0.07-0.04-0.16-0.03-0.27,0.03
						l-2.98,1.72c-0.11,0.06-0.21,0.18-0.28,0.31l1.33,0.77C332.23,382.62,332.33,382.51,332.44,382.45z"/>
					<path class="st21" d="M332.06,383.1c0-0.11,0.04-0.24,0.1-0.35l-1.33-0.77c-0.06,0.11-0.1,0.23-0.1,0.35l0.01,3.42
						c0,0.12,0.04,0.2,0.11,0.24l1.33,0.77c-0.07-0.04-0.11-0.12-0.11-0.24L332.06,383.1z"/>
				</g>
			</g>
			<g>
				<g>
					<path class="st22" d="M341.55,377.14c0.21-0.12,0.38-0.03,0.38,0.22l0.01,3.42c0,0.24-0.17,0.53-0.38,0.65l-2.98,1.72
						c-0.21,0.12-0.38,0.03-0.38-0.21l-0.01-3.42c0-0.24,0.17-0.54,0.38-0.66L341.55,377.14z"/>
				</g>
				<g>
					<path class="st23" d="M338.57,378.85l2.98-1.72c0.11-0.06,0.2-0.07,0.27-0.03l-1.33-0.77c-0.07-0.04-0.16-0.03-0.27,0.03
						l-2.98,1.72c-0.11,0.06-0.21,0.18-0.28,0.31l1.33,0.77C338.36,379.03,338.46,378.92,338.57,378.85z"/>
					<path class="st24" d="M338.19,379.51c0-0.11,0.04-0.24,0.1-0.35l-1.33-0.77c-0.06,0.11-0.1,0.23-0.1,0.35l0.01,3.42
						c0,0.12,0.04,0.2,0.11,0.24l1.33,0.77c-0.07-0.04-0.11-0.12-0.11-0.24L338.19,379.51z"/>
				</g>
			</g>
		</g>
		<g>
			<g>
				<path class="st19" d="M196.94,61.01c1.11-0.64,2.01-0.12,2.01,1.15l0.13,46.65c0,1.27-0.89,2.82-2,3.46l-33.22,19.18
					c-1.11,0.64-2.01,0.12-2.01-1.15l-0.13-46.65c0-1.27,0.89-2.82,2-3.46L196.94,61.01z"/>
				<path class="st6" d="M164.11,83.65c0-0.42,0.44-1.18,0.8-1.39l31.66-18.28l0.13,20.99c0,0.41-0.44,1.18-0.8,1.39l-31.66,18.28
					L164.11,83.65z"/>
			</g>
			<g>
				<path class="st21" d="M155,79.75l0.13,46.65c0,0.63,0.23,1.08,0.59,1.29l6.72,3.91c-0.36-0.21-0.58-0.66-0.59-1.29l-0.13-46.65
					c0-0.68,0.26-1.43,0.66-2.09l-6.73-3.89C155.25,78.33,155,79.08,155,79.75z"/>
				<path class="st20" d="M191.64,56.97c-0.36-0.21-0.87-0.18-1.42,0.14L157,76.29c-0.52,0.3-0.99,0.81-1.35,1.39l6.73,3.89
					c0.35-0.57,0.82-1.08,1.34-1.37l33.22-19.18c0.56-0.32,1.06-0.35,1.42-0.14L191.64,56.97z"/>
			</g>
			<g>
				<g class="st10">
					<g>
						<polygon class="st15" points="164.87,116.88 164.13,116.45 164.12,112.52 164.86,112.95 						"/>
					</g>
					<g>
						<polygon class="st16" points="164.86,112.95 164.12,112.52 167.55,110.54 168.29,110.97 						"/>
					</g>
					<g>
						<polygon class="st14" points="168.29,110.97 168.3,114.91 164.87,116.88 164.86,112.95 						"/>
					</g>
				</g>
				<g class="st10">
					<g>
						<polygon class="st15" points="164.86,111.58 164.12,111.16 164.11,107.22 164.85,107.65 						"/>
					</g>
					<g>
						<polygon class="st16" points="164.85,107.65 164.11,107.22 167.53,105.24 168.27,105.67 						"/>
					</g>
					<g>
						<polygon class="st14" points="168.27,105.67 168.28,109.61 164.86,111.58 164.85,107.65 						"/>
					</g>
				</g>
				<g class="st10">
					<g>
						<polygon class="st15" points="169.6,114.15 168.87,113.72 168.85,109.78 169.59,110.21 						"/>
					</g>
					<g>
						<polygon class="st16" points="169.59,110.21 168.85,109.78 172.29,107.8 173.02,108.23 						"/>
					</g>
					<g>
						<polygon class="st14" points="173.02,108.23 173.04,112.17 169.6,114.15 169.59,110.21 						"/>
					</g>
				</g>
				<g class="st10">
					<g>
						<polygon class="st15" points="169.59,108.85 168.85,108.42 168.84,104.49 169.58,104.91 						"/>
					</g>
					<g>
						<polygon class="st16" points="169.58,104.91 168.84,104.49 172.27,102.5 173.01,102.93 						"/>
					</g>
					<g>
						<polygon class="st14" points="173.01,102.93 173.02,106.87 169.59,108.85 169.58,104.91 						"/>
					</g>
				</g>
				<g class="st10">
					<g>
						<polygon class="st15" points="174.34,111.42 173.6,110.99 173.59,107.05 174.33,107.48 						"/>
					</g>
					<g>
						<polygon class="st16" points="174.33,107.48 173.59,107.05 177.02,105.07 177.76,105.5 						"/>
					</g>
					<g>
						<polygon class="st14" points="177.76,105.5 177.77,109.44 174.34,111.42 174.33,107.48 						"/>
					</g>
				</g>
				<g class="st10">
					<g>
						<polygon class="st15" points="174.33,106.12 173.59,105.69 173.58,101.75 174.31,102.18 						"/>
					</g>
					<g>
						<polygon class="st16" points="174.31,102.18 173.58,101.75 177,99.77 177.74,100.2 						"/>
					</g>
					<g>
						<polygon class="st14" points="177.74,100.2 177.75,104.14 174.33,106.12 174.31,102.18 						"/>
					</g>
				</g>
				<g class="st10">
					<g>
						<polygon class="st15" points="179.07,108.69 178.33,108.26 178.32,104.32 179.06,104.75 						"/>
					</g>
					<g>
						<polygon class="st16" points="179.06,104.75 178.32,104.32 181.75,102.34 182.49,102.77 						"/>
					</g>
					<g>
						<polygon class="st14" points="182.49,102.77 182.5,106.71 179.07,108.69 179.06,104.75 						"/>
					</g>
				</g>
				<g class="st10">
					<g>
						<polygon class="st15" points="179.06,103.39 178.32,102.96 178.31,99.02 179.05,99.45 						"/>
					</g>
					<g>
						<polygon class="st16" points="179.05,99.45 178.31,99.02 181.73,97.04 182.47,97.47 						"/>
					</g>
					<g>
						<polygon class="st14" points="182.47,97.47 182.48,101.41 179.06,103.39 179.05,99.45 						"/>
					</g>
				</g>
				<g class="st10">
					<g>
						<polygon class="st15" points="183.8,105.95 183.07,105.52 183.05,101.59 183.79,102.02 						"/>
					</g>
					<g>
						<polygon class="st16" points="183.79,102.02 183.05,101.59 186.48,99.61 187.22,100.04 						"/>
					</g>
					<g>
						<polygon class="st14" points="187.22,100.04 187.23,103.97 183.8,105.95 183.79,102.02 						"/>
					</g>
				</g>
				<g class="st10">
					<g>
						<polygon class="st15" points="183.79,100.65 183.05,100.22 183.04,96.29 183.78,96.72 						"/>
					</g>
					<g>
						<polygon class="st16" points="183.78,96.72 183.04,96.29 186.47,94.31 187.21,94.74 						"/>
					</g>
					<g>
						<polygon class="st14" points="187.21,94.74 187.22,98.68 183.79,100.65 183.78,96.72 						"/>
					</g>
				</g>
				<g class="st10">
					<g>
						<polygon class="st15" points="188.54,103.22 187.8,102.79 187.79,98.85 188.53,99.28 						"/>
					</g>
					<g>
						<polygon class="st16" points="188.53,99.28 187.79,98.85 191.22,96.87 191.96,97.3 						"/>
					</g>
					<g>
						<polygon class="st14" points="191.96,97.3 191.97,101.24 188.54,103.22 188.53,99.28 						"/>
					</g>
				</g>
				<g class="st10">
					<g>
						<polygon class="st15" points="188.53,97.92 187.79,97.49 187.78,93.55 188.51,93.98 						"/>
					</g>
					<g>
						<polygon class="st16" points="188.51,93.98 187.78,93.55 191.2,91.57 191.94,92 						"/>
					</g>
					<g>
						<polygon class="st14" points="191.94,92 191.95,95.94 188.53,97.92 188.51,93.98 						"/>
					</g>
				</g>
				<g class="st10">
					<g>
						<polygon class="st15" points="193.27,100.49 192.53,100.06 192.52,96.12 193.26,96.55 						"/>
					</g>
					<g>
						<polygon class="st16" points="193.26,96.55 192.52,96.12 195.95,94.14 196.69,94.57 						"/>
					</g>
					<g>
						<polygon class="st14" points="196.69,94.57 196.7,98.51 193.27,100.49 193.26,96.55 						"/>
					</g>
				</g>
				<g class="st10">
					<g>
						<polygon class="st15" points="193.26,95.19 192.52,94.76 192.51,90.82 193.25,91.25 						"/>
					</g>
					<g>
						<polygon class="st16" points="193.25,91.25 192.51,90.82 195.93,88.84 196.67,89.27 						"/>
					</g>
					<g>
						<polygon class="st14" points="196.67,89.27 196.68,93.21 193.26,95.19 193.25,91.25 						"/>
					</g>
				</g>
			</g>
			<g>
				<g>
					<path class="st13" d="M178.63,111.81c1.38-0.8,2.51-0.16,2.51,1.44c0,1.59-1.12,3.53-2.5,4.33l-5.85,3.38
						c-1.39,0.8-2.51,0.16-2.52-1.43c0-1.59,1.12-3.53,2.5-4.33L178.63,111.81z"/>
				</g>
				<g>
					<path class="st11" d="M172.78,115.18l5.85-3.38c0.7-0.4,1.33-0.44,1.78-0.17l-0.67-0.39c-0.46-0.26-1.09-0.23-1.78,0.17
						l-5.85,3.38c-0.55,0.32-1.05,0.81-1.46,1.39l0.67,0.39C171.73,115.99,172.23,115.5,172.78,115.18z"/>
					<path class="st12" d="M170.28,119.52c0-0.97,0.41-2.06,1.04-2.94l-0.67-0.39c-0.63,0.89-1.05,1.98-1.04,2.94
						c0,0.79,0.28,1.34,0.73,1.61l0.67,0.39C170.56,120.86,170.28,120.3,170.28,119.52z"/>
				</g>
			</g>
			<g>
				<g>
					<path class="st22" d="M190.86,104.87c1.38-0.8,2.51-0.16,2.51,1.44c0,1.59-1.12,3.53-2.5,4.33l-5.85,3.38
						c-1.39,0.8-2.51,0.16-2.52-1.43c0-1.59,1.12-3.53,2.5-4.33L190.86,104.87z"/>
				</g>
				<g>
					<path class="st23" d="M185.01,108.25l5.85-3.38c0.7-0.4,1.33-0.44,1.78-0.17l-0.67-0.39c-0.46-0.26-1.09-0.23-1.78,0.17
						l-5.85,3.38c-0.55,0.32-1.05,0.81-1.46,1.39l0.67,0.39C183.97,109.06,184.47,108.56,185.01,108.25z"/>
					<path class="st24" d="M182.51,112.58c0-0.97,0.41-2.06,1.04-2.94l-0.67-0.39c-0.63,0.89-1.05,1.98-1.04,2.94
						c0,0.79,0.28,1.34,0.73,1.61l0.67,0.39C182.79,113.93,182.51,113.37,182.51,112.58z"/>
				</g>
			</g>
			<text transform="matrix(1 -0.5774 0 1 170.9915 92.2098)" class="st14 st25 st26">ERROR..!!</text>
		</g>
		<g>
			<g>
				<g class="st10">
					<g>
						<polygon class="st24" points="387.09,243.99 377.15,238.22 377.14,235.86 387.08,241.63 						"/>
					</g>
					<g>
						<polygon class="st23" points="387.08,241.63 377.14,235.86 393.67,226.31 403.61,232.09 						"/>
					</g>
					<g>
						<polygon class="st22" points="403.61,232.09 403.62,234.45 387.09,243.99 387.08,241.63 						"/>
					</g>
				</g>
			</g>
			<g>
				<g class="st10">
					<g>
						<polygon class="st24" points="388.32,235.98 386.31,234.81 386.28,225.97 388.3,227.14 						"/>
					</g>
					<g>
						<polygon class="st13" points="388.3,227.14 386.28,225.97 390.42,223.58 392.44,224.75 						"/>
					</g>
					<g>
						<polygon class="st22" points="392.44,224.75 392.46,233.59 388.32,235.98 388.3,227.14 						"/>
					</g>
				</g>
			</g>
			<g>
				<g class="st10">
					<g>
						<polygon class="st24" points="364.51,240.89 362.49,239.72 362.4,206.62 364.42,207.8 						"/>
					</g>
					<g>
						<polygon class="st23" points="364.42,207.8 362.4,206.62 410.08,179.1 412.09,180.27 						"/>
					</g>
					<g>
						<polygon class="st22" points="412.09,180.27 412.19,213.36 364.51,240.89 364.42,207.8 						"/>
						<polygon class="st6" points="366.14,208.78 410.39,183.24 410.47,212.37 366.22,237.92 						"/>
					</g>
				</g>
			</g>
			<g>
				<g class="st10">
					<g>
						<polygon class="st24" points="394.72,268.58 374.56,256.86 374.55,254.36 394.71,266.08 						"/>
					</g>
					<g>
						<polygon class="st23" points="394.71,266.08 374.55,254.36 422.23,226.84 442.39,238.55 						"/>
					</g>
					<g>
						<polygon class="st22" points="442.39,238.55 442.4,241.05 394.72,268.58 394.71,266.08 						"/>
					</g>
				</g>
			</g>
			<g>
				<g>
					<polygon class="st6" points="386.93,254.28 383.82,256.08 380.23,254 383.34,252.21 					"/>
					<polygon class="st6" points="391.1,251.87 387.99,253.67 384.4,251.59 387.51,249.8 					"/>
					<polygon class="st6" points="395.27,249.46 392.16,251.26 388.57,249.19 391.68,247.39 					"/>
					<polygon class="st6" points="399.44,247.05 396.33,248.85 392.74,246.78 395.85,244.98 					"/>
					<polygon class="st6" points="403.62,244.65 400.51,246.44 396.92,244.37 400.03,242.57 					"/>
					<polygon class="st6" points="407.79,242.24 404.68,244.03 401.09,241.96 404.2,240.16 					"/>
					<polygon class="st6" points="411.96,239.83 408.85,241.62 405.26,239.55 408.37,237.76 					"/>
					<polygon class="st6" points="416.13,237.42 413.02,239.22 409.43,237.14 412.54,235.35 					"/>
					<polygon class="st6" points="420.3,235.01 417.19,236.81 413.6,234.73 416.71,232.94 					"/>
					<polygon class="st6" points="424.47,232.6 421.36,234.4 417.77,232.33 420.88,230.53 					"/>
				</g>
				<g>
					<polygon class="st6" points="391.4,256.86 388.29,258.66 384.7,256.58 387.81,254.79 					"/>
					<polygon class="st6" points="395.57,254.45 392.46,256.25 388.87,254.17 391.98,252.38 					"/>
					<polygon class="st6" points="399.74,252.04 396.63,253.84 393.04,251.77 396.15,249.97 					"/>
					<polygon class="st6" points="403.91,249.64 400.8,251.43 397.21,249.36 400.32,247.56 					"/>
					<polygon class="st6" points="408.09,247.23 404.98,249.02 401.39,246.95 404.5,245.15 					"/>
					<polygon class="st6" points="412.26,244.82 409.15,246.61 405.56,244.54 408.67,242.75 					"/>
					<polygon class="st6" points="416.43,242.41 413.32,244.21 409.73,242.13 412.84,240.34 					"/>
					<polygon class="st6" points="420.6,240 417.49,241.8 413.9,239.72 417.01,237.93 					"/>
					<polygon class="st6" points="424.77,237.59 421.66,239.39 418.07,237.32 421.18,235.52 					"/>
					<polygon class="st6" points="428.94,235.18 425.83,236.98 422.24,234.91 425.35,233.11 					"/>
				</g>
				<g>
					<polygon class="st6" points="395.87,259.44 392.76,261.24 389.17,259.16 392.28,257.37 					"/>
					<polygon class="st6" points="400.04,257.03 396.93,258.83 393.34,256.76 396.45,254.96 					"/>
					<polygon class="st6" points="404.21,254.62 401.1,256.42 397.51,254.35 400.62,252.55 					"/>
					<polygon class="st6" points="408.38,252.22 405.27,254.01 401.68,251.94 404.79,250.14 					"/>
					<polygon class="st6" points="412.56,249.81 409.45,251.6 405.86,249.53 408.97,247.73 					"/>
					<polygon class="st6" points="427.69,246.36 410.89,256 407.3,253.92 424.1,244.29 					"/>
					<polygon class="st6" points="416.73,247.4 413.62,249.19 410.03,247.12 413.14,245.33 					"/>
					<polygon class="st6" points="420.9,244.99 417.79,246.79 414.2,244.71 417.31,242.92 					"/>
					<polygon class="st6" points="425.07,242.58 421.96,244.38 418.37,242.3 421.48,240.51 					"/>
					<polygon class="st6" points="429.24,240.17 426.13,241.97 422.54,239.9 425.65,238.1 					"/>
					<polygon class="st6" points="433.41,237.77 430.3,239.56 426.71,237.49 429.82,235.69 					"/>
				</g>
			</g>
			<text transform="matrix(1 -0.5774 0 1 379.4332 213.2593)"><tspan x="0" y="0" class="st14 st27 st28">SYSTEM</tspan><tspan x="-1" y="6.87" class="st14 st27 st28">ERROR..!!</tspan></text>
		</g>
		<g>
			<g>
				<path class="st14" d="M199.56,331.83c1.53-0.88,2.77-0.17,2.78,1.59l0.1,35.57c0,1.76-1.23,3.9-2.76,4.78l-30.96,17.87
					c-1.53,0.88-2.77,0.17-2.78-1.59l-0.1-35.57c0-1.76,1.23-3.9,2.76-4.78L199.56,331.83z"/>
				<path class="st6" d="M168.52,354.48c0-0.8,0.73-2.06,1.42-2.46l29.73-17.17l0.1,34.14c0,0.8-0.73,2.06-1.42,2.46l-29.73,17.17
					L168.52,354.48z"/>
			</g>
			<g>
				<path class="st15" d="M147,343.54l0.1,35.57c0,0.88,0.31,1.49,0.81,1.78l18.84,10.95c-0.5-0.29-0.81-0.9-0.81-1.78l-0.1-35.57
					c0-0.99,0.39-2.09,1.01-3.03l-18.88-10.9C147.38,341.49,147,342.57,147,343.54z"/>
				<path class="st16" d="M182.69,320.69c-0.5-0.29-1.2-0.25-1.97,0.19l-30.96,17.87c-0.69,0.4-1.3,1.05-1.79,1.8l18.88,10.9
					c0.48-0.73,1.08-1.37,1.75-1.75l30.96-17.87c0.77-0.44,1.47-0.48,1.97-0.19L182.69,320.69z"/>
			</g>
			<g>
				<g class="st10">
					<g>
						<polygon class="st19" points="155.96,354.69 158.57,353.18 158.54,362.22 155.93,363.74 						"/>
					</g>
					<g>
						<polygon class="st20" points="150.04,351.28 152.65,349.76 158.57,353.18 155.96,354.69 						"/>
					</g>
					<g>
						<polygon class="st21" points="155.96,354.69 155.93,363.74 150.02,360.32 150.04,351.28 						"/>
					</g>
				</g>
			</g>
			<g>
				<g class="st10">
					<g>
						<path class="st13" d="M151.44,355.72l0.75-0.44c0.3-0.17,0.71-0.15,1.17,0.12l-0.75,0.44
							C152.16,355.57,151.74,355.54,151.44,355.72z"/>
					</g>
					<g>
						<path class="st13" d="M154.53,359.3l-0.75,0.44c0.3-0.17,0.48-0.54,0.48-1.05c0-1.05-0.73-2.32-1.64-2.84l0.75-0.44
							c0.91,0.52,1.64,1.8,1.64,2.84C155.01,358.76,154.83,359.12,154.53,359.3z"/>
					</g>
					<g>
						<path class="st12" d="M152.62,355.83c0.91,0.52,1.64,1.8,1.64,2.84c0,1.04-0.74,1.46-1.65,0.94c-0.91-0.53-1.65-1.8-1.64-2.84
							C150.97,355.73,151.71,355.31,152.62,355.83z"/>
					</g>
				</g>
			</g>
			<text transform="matrix(1 -0.5774 0 1 175.4501 365.9097)"><tspan x="0" y="0" class="st14 st27 st29">SYSTEM</tspan><tspan x="-0.93" y="6.42" class="st14 st27 st29">ERROR..!!</tspan></text>
		</g>
		<g>
			<g>
				<path class="st19" d="M252.16,190.98l19.03,32.96c0.96,1.66-0.24,3.75-2.16,3.75h-38.06c-1.92,0-3.12-2.08-2.16-3.75
					l19.03-32.96C248.8,189.32,251.2,189.32,252.16,190.98z"/>
				<path class="st6" d="M269.03,229.19h-38.06c-1.45,0-2.74-0.75-3.46-2c-0.72-1.25-0.72-2.75,0-4l19.03-32.96
					c0.72-1.25,2.02-2,3.46-2s2.74,0.75,3.46,2l19.03,32.96c0.72,1.25,0.72,2.75,0,4C271.77,228.44,270.47,229.19,269.03,229.19z
					 M250,191.24c-0.17,0-0.6,0.05-0.86,0.5l-19.03,32.96c-0.26,0.45-0.09,0.85,0,1c0.09,0.15,0.34,0.5,0.86,0.5h38.06
					c0.52,0,0.78-0.35,0.86-0.5c0.09-0.15,0.26-0.55,0-1l-19.03-32.96C250.6,191.28,250.17,191.24,250,191.24z"/>
			</g>
			<g>
				<g>
					<path class="st6" d="M248.85,217.19l-1.06-10.82v-5h4.42v5l-1.05,10.82H248.85z M247.97,222.69v-4.09h4.09v4.09H247.97z"/>
				</g>
			</g>
		</g>
	</g>
</g>
</svg>
